HIERARCHY
ROOT Hips
{
	OFFSET 0.000000 0.000000 0.000000
	CHANNELS 6 Xposition Yposition Zposition Xrotation Yrotation Zrotation
	JOINT LeftUpLeg_virtual
	{
		OFFSET 0.000000 0.000000 0.000000
		CHANNELS 3 Xrotation Yrotation Zrotation
		JOINT LeftUpLeg
		{
			OFFSET 13.026900 -6.336304 -1.092800
			CHANNELS 3 Xrotation Yrotation Zrotation
			JOINT LeftLeg
			{
				OFFSET 0.524474 -46.096886 9.782700
				CHANNELS 3 Xrotation Yrotation Zrotation
				JOINT LeftFoot
				{
					OFFSET -0.524474 -53.427422 -12.948200
					CHANNELS 3 Xrotation Yrotation Zrotation
					JOINT LeftToeBase
					{
						OFFSET 0.192200 -14.009700 16.364100
						CHANNELS 3 Xrotation Yrotation Zrotation
						JOINT LeftToe_End
						{
							OFFSET -1.784700 -0.561700 9.474800
							CHANNELS 3 Xrotation Yrotation Zrotation
							End Site
							{
								OFFSET 0 0 0
							}
						}
					}
				}
			}
		}
	}
	JOINT RightUpLeg_virtual
	{
		OFFSET 0.000000 0.000000 0.000000
		CHANNELS 3 Xrotation Yrotation Zrotation
		JOINT RightUpLeg
		{
			OFFSET -12.883000 -6.336304 -1.092800
			CHANNELS 3 Xrotation Yrotation Zrotation
			JOINT RightLeg
			{
				OFFSET -0.524587 -46.096825 9.782800
				CHANNELS 3 Xrotation Yrotation Zrotation
				JOINT RightFoot
				{
					OFFSET 0.524587 -53.427383 -12.948300
					CHANNELS 3 Xrotation Yrotation Zrotation
					JOINT RightToeBase
					{
						OFFSET -0.192200 -14.009700 16.364100
						CHANNELS 3 Xrotation Yrotation Zrotation
						JOINT RightToe_End
						{
							OFFSET 1.784700 -0.561700 9.474800
							CHANNELS 3 Xrotation Yrotation Zrotation
							End Site
							{
								OFFSET 0 0 0
							}
						}
					}
				}
			}
		}
	}
	JOINT Spine_virtual
	{
		OFFSET 0.000000 0.000000 0.000000
		CHANNELS 3 Xrotation Yrotation Zrotation
		JOINT Spine
		{
			OFFSET 0.072000 7.257294 -0.789700
			CHANNELS 3 Xrotation Yrotation Zrotation
			JOINT Spine1
			{
				OFFSET 0.000000 12.508769 -0.658067
				CHANNELS 3 Xrotation Yrotation Zrotation
				JOINT Spine1_split
				{
					OFFSET 0.000000 12.508769 -0.658067
					CHANNELS 3 Xrotation Yrotation Zrotation
					JOINT Spine2
					{
						OFFSET 0.000000 12.508769 -0.658067
						CHANNELS 3 Xrotation Yrotation Zrotation
						JOINT Neck_virtual
						{
							OFFSET 0.000000 0.000000 0.000000
							CHANNELS 3 Xrotation Yrotation Zrotation
							JOINT Neck
							{
								OFFSET 0.000000 14.033295 7.520400
								CHANNELS 3 Xrotation Yrotation Zrotation
								JOINT Head
								{
									OFFSET 0.000000 8.198502 5.703100
									CHANNELS 3 Xrotation Yrotation Zrotation
									JOINT HeadTop_End
									{
										OFFSET 0.000000 17.760803 13.332701
										CHANNELS 3 Xrotation Yrotation Zrotation
										End Site
										{
											OFFSET 0 0 0
										}
									}
								}
							}
						}
						JOINT LeftShoulder_virtual
						{
							OFFSET 0.000000 0.000000 0.000000
							CHANNELS 3 Xrotation Yrotation Zrotation
							JOINT LeftShoulder
							{
								OFFSET 6.292450 5.785301 -0.669000
								CHANNELS 3 Xrotation Yrotation Zrotation
								JOINT LeftShoulder_split
								{
									OFFSET 6.292450 5.785301 -0.669000
									CHANNELS 3 Xrotation Yrotation Zrotation
									JOINT LeftArm
									{
										OFFSET 13.907140 -6.093903 1.965100
										CHANNELS 3 Xrotation Yrotation Zrotation
										JOINT LeftForeArm
										{
											OFFSET 34.140198 0.000000 0.000000
											CHANNELS 3 Xrotation Yrotation Zrotation
											JOINT LeftHand
											{
												OFFSET 40.960209 0.000000 0.000000
												CHANNELS 3 Xrotation Yrotation Zrotation
												End Site
												{
													OFFSET 0 0 0
												}
											}
										}
									}
								}
							}
						}
						JOINT RightShoulder_virtual
						{
							OFFSET 0.000000 0.000000 0.000000
							CHANNELS 3 Xrotation Yrotation Zrotation
							JOINT RightShoulder
							{
								OFFSET -6.292450 5.785301 -0.669000
								CHANNELS 3 Xrotation Yrotation Zrotation
								JOINT RightShoulder_split
								{
									OFFSET -6.292450 5.785301 -0.669000
									CHANNELS 3 Xrotation Yrotation Zrotation
									JOINT RightArm
									{
										OFFSET -13.907140 -6.093903 1.965100
										CHANNELS 3 Xrotation Yrotation Zrotation
										JOINT RightForeArm
										{
											OFFSET -34.140198 0.000000 0.000000
											CHANNELS 3 Xrotation Yrotation Zrotation
											JOINT RightHand
											{
												OFFSET -40.960209 0.000000 0.000000
												CHANNELS 3 Xrotation Yrotation Zrotation
												End Site
												{
													OFFSET 0 0 0
												}
											}
										}
									}
								}
							}
						}
					}
				}
			}
		}
	}
}
MOTION
Frames: 11
Frame Time: 0.03333333
4.656409 177.861969 13.345581 0.000000 0.000000 0.000000 15.867110 -16.548182 5.485040 -77.112399 -0.546389 26.891804 60.520831 -9.161209 5.657293 17.299713 3.985873 -12.114162 -8.650995 1.824884 0.033535 0.000000 0.000000 0.000000 15.754933 -18.080105 5.487693 -115.684867 -16.691449 -8.706651 90.588239 10.525088 -1.711259 29.369755 15.128724 29.223736 6.223559 -16.461410 -20.477083 0.000000 0.000000 0.000000 18.807711 -10.902734 5.216214 23.066339 -0.215614 -10.486971 10.215533 -4.099502 0.359643 0.233281 0.543933 -0.013880 0.000000 0.000000 0.000000 13.210451 -1.524790 -0.182051 2.092108 -9.384026 -10.613819 -30.677713 37.363310 -7.924283 0.000000 0.000000 0.000000 12.169761 -3.104325 -1.581381 10.962086 0.321485 -7.406637 5.418079 -5.387158 -0.638541 -70.649079 -1.025387 9.167727 45.482906 -7.234133 22.771663 0.000000 0.000000 0.000000 16.501795 -1.613802 -0.164016 1.649809 16.364319 -3.801915 11.282363 6.249595 1.516084 -40.545806 -17.423370 -5.078265 -62.002319 47.492822 35.609154 0.000000 0.000000 0.000000 
4.663400 177.876221 13.469402 0.000000 0.000000 0.000000 15.904507 -16.438160 5.463645 -77.205419 -0.487095 26.917082 60.527934 -9.153131 5.635665 17.447199 3.983665 -12.128547 -8.678153 1.829368 0.024844 0.000000 0.000000 0.000000 15.799228 -17.894336 5.433850 -115.615773 -16.645946 -8.575013 90.640900 10.489792 -1.740754 29.317101 15.142010 29.278975 6.132717 -16.445842 -20.496003 0.000000 0.000000 0.000000 18.860457 -10.697410 5.137518 23.103461 -0.270728 -10.508366 10.266734 -4.162181 0.410194 0.229241 0.550521 -0.022639 0.000000 0.000000 0.000000 13.267782 -1.558730 -0.193132 2.075571 -9.281051 -10.677043 -31.048295 37.873047 -7.600851 0.000000 0.000000 0.000000 12.235200 -3.157318 -1.503210 11.043466 -0.086171 -6.551828 5.233920 -5.208251 -0.401162 -71.456872 -2.029808 9.402568 44.866109 -6.501881 22.250629 0.000000 0.000000 0.000000 16.548806 -1.680983 -0.131970 1.735012 16.251851 -4.282110 11.506056 6.176518 0.943222 -40.897281 -17.309593 -5.190983 -62.079938 47.696403 35.631652 0.000000 0.000000 0.000000 
4.674566 177.934937 13.630482 0.000000 0.000000 0.000000 15.925602 -16.175659 5.387984 -77.432127 -0.469541 26.951100 60.609890 -9.216440 5.599200 17.718388 3.950482 -12.081952 -8.654202 1.840328 0.003167 0.000000 0.000000 0.000000 15.829339 -17.563104 5.329854 -115.720849 -16.554931 -8.433296 90.843012 10.389552 -1.744618 29.445185 15.116640 29.223880 5.880222 -16.396959 -20.491203 0.000000 0.000000 0.000000 18.907972 -10.366879 5.039423 23.195647 -0.304895 -10.558750 10.358448 -4.282819 0.438643 0.230929 0.556639 -0.029038 0.000000 0.000000 0.000000 13.376027 -1.637358 -0.212069 2.106122 -9.070566 -10.692903 -31.504640 38.774697 -7.124603 0.000000 0.000000 0.000000 12.357924 -3.239412 -1.416614 11.175926 -0.625777 -5.209067 5.241856 -5.072490 -0.478885 -72.346545 -4.110390 9.879346 43.901379 -5.389678 21.381357 0.000000 0.000000 0.000000 16.609068 -1.802288 -0.115392 1.970205 16.081450 -5.336343 11.623242 6.171343 0.891157 -41.722016 -17.373295 -5.366278 -62.277166 47.985262 35.820271 0.000000 0.000000 0.000000 
4.694269 178.042389 13.820316 0.000000 0.000000 0.000000 15.917582 -15.818424 5.255177 -77.720805 -0.501379 26.984271 60.716304 -9.338434 5.558711 18.054137 3.902650 -11.990452 -8.581881 1.857732 -0.030950 0.000000 0.000000 0.000000 15.834122 -17.178271 5.186004 -115.920727 -16.470195 -8.274948 91.112271 10.214340 -1.706227 29.706487 15.023735 29.046851 5.460878 -16.318242 -20.467203 0.000000 0.000000 0.000000 18.940656 -9.991854 4.924929 23.303277 -0.306553 -10.615584 10.475482 -4.441836 0.439623 0.231539 0.555187 -0.032464 0.000000 0.000000 0.000000 13.525674 -1.745625 -0.242824 2.189750 -8.766080 -10.651960 -31.974113 40.016565 -6.534389 0.000000 0.000000 0.000000 12.530836 -3.347014 -1.337147 11.354385 -1.245219 -3.614058 5.381592 -5.128970 -0.861033 -73.218351 -6.836971 10.368318 42.796770 -4.174035 20.382936 0.000000 0.000000 0.000000 16.694012 -1.958321 -0.128741 2.312028 15.922686 -6.789360 11.764253 6.293618 1.093576 -42.829811 -17.554764 -5.515568 -62.527547 48.277058 36.113088 0.000000 0.000000 0.000000 
4.704966 178.190094 14.029438 0.000000 0.000000 0.000000 15.864349 -15.416210 5.063160 -78.012228 -0.582122 27.011312 60.781922 -9.501998 5.516144 18.400306 3.852961 -11.864122 -8.512807 1.877833 -0.070170 0.000000 0.000000 0.000000 15.799174 -16.813381 5.003195 -116.150604 -16.440764 -8.121273 91.382392 9.964236 -1.608316 30.034732 14.881826 28.791372 4.973010 -16.228205 -20.425476 0.000000 0.000000 0.000000 18.958023 -9.613828 4.787030 23.402721 -0.267052 -10.653412 10.610456 -4.618341 0.408585 0.230906 0.532961 -0.038326 0.000000 0.000000 0.000000 13.698972 -1.874625 -0.280345 2.339142 -8.389939 -10.540111 -32.390526 41.503402 -5.893989 0.000000 0.000000 0.000000 12.742901 -3.475283 -1.272367 11.557419 -1.867555 -1.982672 5.532442 -5.287499 -1.348972 -73.999239 -9.870878 10.631410 41.728194 -3.134558 19.470134 0.000000 0.000000 0.000000 16.815262 -2.136398 -0.171216 2.710726 15.859404 -8.371065 11.802040 6.397809 1.324945 -44.077103 -17.655284 -5.641186 -62.769992 48.481038 36.440961 0.000000 0.000000 0.000000 
4.705458 178.371094 14.230583 0.000000 0.000000 0.000000 15.773775 -15.068435 4.829025 -78.253389 -0.701285 27.044484 60.815793 -9.694045 5.481325 18.742463 3.809250 -11.722914 -8.477418 1.897688 -0.113424 0.000000 0.000000 0.000000 15.707191 -16.561848 4.790736 -116.319119 -16.508950 -7.979834 91.611592 9.684164 -1.466770 30.336569 14.748567 28.526290 4.524082 -16.144433 -20.368017 0.000000 0.000000 0.000000 18.952631 -9.324933 4.628151 23.480003 -0.184040 -10.657579 10.762537 -4.798657 0.355631 0.239905 0.511768 -0.035530 0.000000 0.000000 0.000000 13.868872 -2.016213 -0.313821 2.517860 -7.964811 -10.351903 -32.697444 43.096690 -5.283492 0.000000 0.000000 0.000000 12.981590 -3.615566 -1.224524 11.752468 -2.452004 -0.557339 5.519754 -5.514745 -1.949036 -74.611293 -12.717090 10.675406 40.760154 -2.483717 18.761343 0.000000 0.000000 0.000000 16.979393 -2.327170 -0.239831 3.129584 15.958460 -9.846602 11.716368 6.362359 1.593148 -45.261317 -17.498137 -5.665288 -62.921157 48.523395 36.701987 0.000000 0.000000 0.000000 
4.703830 178.549576 14.430302 0.000000 0.000000 0.000000 15.651703 -14.847180 4.575591 -78.438569 -0.841358 27.111340 60.893752 -9.887405 5.455466 19.069987 3.792871 -11.558092 -8.465209 1.918179 -0.164823 0.000000 0.000000 0.000000 15.570161 -16.430331 4.564781 -116.373200 -16.696408 -7.845952 91.793467 9.417984 -1.320841 30.508505 14.659083 28.305388 4.113989 -16.064279 -20.320834 0.000000 0.000000 0.000000 18.920944 -9.145973 4.450694 23.540853 -0.056526 -10.628018 10.939480 -4.962679 0.298823 0.255392 0.498404 -0.031177 0.000000 0.000000 0.000000 14.006251 -2.161337 -0.333545 2.706630 -7.526873 -10.102156 -32.864664 44.714247 -4.768128 0.000000 0.000000 0.000000 13.229203 -3.763604 -1.198465 11.919809 -2.990915 0.504750 5.417892 -5.812253 -2.313330 -75.145154 -15.104583 10.478620 39.866919 -2.180981 18.254784 0.000000 0.000000 0.000000 17.184141 -2.506967 -0.312631 3.532219 16.199045 -11.029602 11.698624 6.206874 1.816292 -46.288561 -16.868718 -5.507020 -62.936396 48.388110 36.829213 0.000000 0.000000 0.000000 
4.693663 178.680054 14.603096 0.000000 0.000000 0.000000 15.484478 -14.786588 4.334479 -78.582781 -0.987407 27.229830 61.069302 -10.048878 5.440387 19.378558 3.836049 -11.360543 -8.446334 1.942874 -0.233872 0.000000 0.000000 0.000000 15.408072 -16.414338 4.348209 -116.308942 -16.982767 -7.707323 91.935173 9.184365 -1.196374 30.497908 14.634802 28.149088 3.755988 -15.987067 -20.301960 0.000000 0.000000 0.000000 18.845166 -9.089504 4.264232 23.615239 0.095730 -10.575580 11.146547 -5.100765 0.251459 0.278288 0.483451 -0.028754 0.000000 0.000000 0.000000 14.106942 -2.293833 -0.330246 2.879583 -7.086189 -9.787505 -32.884721 46.303287 -4.407660 0.000000 0.000000 0.000000 13.471991 -3.903181 -1.184511 12.040432 -3.504469 1.107165 5.262428 -6.122387 -2.408307 -75.585093 -16.965927 10.074366 39.064751 -2.133515 17.917181 0.000000 0.000000 0.000000 17.390587 -2.662681 -0.366198 3.886610 16.582784 -11.808124 11.703100 6.085268 2.066954 -47.101572 -15.718656 -5.056445 -62.689792 48.014140 36.666962 0.000000 0.000000 0.000000 
4.680750 178.739258 14.732616 0.000000 0.000000 0.000000 15.271033 -14.897467 4.135017 -78.689332 -1.146552 27.380101 61.348254 -10.160378 5.445762 19.652348 3.949574 -11.173822 -8.386817 1.972520 -0.321437 0.000000 0.000000 0.000000 15.219354 -16.490954 4.155021 -116.163568 -17.308229 -7.567889 92.075192 8.994750 -1.110244 30.348467 14.666026 28.047311 3.527830 -15.925561 -20.294522 0.000000 0.000000 0.000000 18.723297 -9.179435 4.093579 23.710734 0.248970 -10.522752 11.378915 -5.204665 0.217987 0.298484 0.469053 -0.020306 0.000000 0.000000 0.000000 14.192936 -2.391872 -0.311417 3.003769 -6.662554 -9.419874 -32.749476 47.803531 -4.261624 0.000000 0.000000 0.000000 13.710385 -4.022148 -1.176022 12.095307 -4.057700 1.203194 5.242193 -6.456754 -2.290055 -75.945481 -18.225173 9.520640 38.354159 -2.276444 17.705899 0.000000 0.000000 0.000000 17.560000 -2.782834 -0.398332 4.163722 17.113877 -12.144870 11.742255 5.982633 2.240187 -47.740683 -14.150642 -4.225243 -62.134893 47.398542 36.147219 0.000000 0.000000 0.000000 
4.670282 178.733612 14.806915 0.000000 0.000000 0.000000 15.036805 -15.123058 3.992413 -78.755004 -1.335058 27.527870 61.692625 -10.236039 5.480165 19.886465 4.102919 -11.051378 -8.289152 2.003756 -0.417267 0.000000 0.000000 0.000000 15.013514 -16.617169 4.003934 -116.011146 -17.599825 -7.433581 92.240188 8.851317 -1.069202 30.153106 14.726011 27.995482 3.444040 -15.889141 -20.288145 0.000000 0.000000 0.000000 18.562574 -9.393035 3.959786 23.820660 0.379884 -10.481052 11.613644 -5.280407 0.190324 0.296117 0.439576 -0.013420 0.000000 0.000000 0.000000 14.293381 -2.453796 -0.291237 3.037806 -6.271706 -9.022939 -32.442456 49.184708 -4.384003 0.000000 0.000000 0.000000 13.947284 -4.110924 -1.174325 12.083685 -4.703431 0.829505 5.322356 -6.705772 -2.031365 -76.262744 -19.023974 8.752268 37.722633 -2.442687 17.547748 0.000000 0.000000 0.000000 17.693523 -2.865595 -0.418596 4.338402 17.758401 -12.066985 11.811760 5.939069 2.333122 -48.294690 -12.273120 -3.125985 -61.339900 46.608692 35.324967 0.000000 0.000000 0.000000 
4.663280 178.679932 14.815094 0.000000 0.000000 0.000000 14.811419 -15.405302 3.910327 -78.782400 -1.545803 27.654623 62.039920 -10.296783 5.545820 20.088770 4.244677 -11.042421 -8.179247 2.031990 -0.503374 0.000000 0.000000 0.000000 14.810893 -16.759401 3.900589 -115.890019 -17.810584 -7.296403 92.410547 8.757489 -1.066769 29.980200 14.798932 27.986775 3.444421 -15.876930 -20.287641 0.000000 0.000000 0.000000 18.371416 -9.703811 3.876157 23.928320 0.475312 -10.456148 11.833925 -5.329185 0.153482 0.282900 0.405550 -0.011724 0.000000 0.000000 0.000000 14.425322 -2.481511 -0.280737 2.968011 -5.937170 -8.626642 -31.918727 50.396141 -4.804054 0.000000 0.000000 0.000000 14.182783 -4.159788 -1.187769 12.006165 -5.451269 0.059891 5.484024 -6.882099 -1.685233 -76.448047 -19.448108 7.827139 37.182952 -2.609834 17.435212 0.000000 0.000000 0.000000 17.803294 -2.916182 -0.447237 4.408345 18.494528 -11.657460 11.806250 5.887399 2.356915 -48.768698 -10.281477 -1.862413 -60.349721 45.719189 34.239660 0.000000 0.000000 0.000000 
